<mxfile host="Electron" modified="2024-03-23T03:53:22.181Z" agent="Mozilla/5.0 (Windows NT 10.0; Win64; x64) AppleWebKit/537.36 (KHTML, like Gecko) draw.io/24.0.4 Chrome/120.0.6099.109 Electron/28.1.0 Safari/537.36" etag="naCjGxyxaBn4Rf9LA7Ng" version="24.0.4" type="device">
  <diagram name="Page-1" id="PMZp9N6Mu1efZBumg5Rg">
    <mxGraphModel dx="880" dy="524" grid="1" gridSize="10" guides="1" tooltips="1" connect="1" arrows="1" fold="1" page="1" pageScale="1" pageWidth="850" pageHeight="1100" math="0" shadow="0">
      <root>
        <mxCell id="0" />
        <mxCell id="1" parent="0" />
        <mxCell id="3r31_RjhhZ_8btsHxjqC-3" style="edgeStyle=orthogonalEdgeStyle;rounded=0;orthogonalLoop=1;jettySize=auto;html=1;entryX=0;entryY=0.5;entryDx=0;entryDy=0;endArrow=open;endFill=0;" edge="1" parent="1" source="3r31_RjhhZ_8btsHxjqC-1" target="3r31_RjhhZ_8btsHxjqC-2">
          <mxGeometry relative="1" as="geometry" />
        </mxCell>
        <mxCell id="3r31_RjhhZ_8btsHxjqC-1" value="&lt;p style=&quot;margin:0px;margin-top:4px;text-align:center;&quot;&gt;&lt;b&gt;Client&lt;/b&gt;&lt;/p&gt;&lt;hr size=&quot;1&quot; style=&quot;border-style:solid;&quot;&gt;&lt;p style=&quot;margin:0px;margin-left:4px;&quot;&gt;&lt;br&gt;&lt;/p&gt;&lt;hr size=&quot;1&quot; style=&quot;border-style:solid;&quot;&gt;&lt;p style=&quot;margin:0px;margin-left:4px;&quot;&gt;&lt;br&gt;&lt;/p&gt;" style="verticalAlign=top;align=left;overflow=fill;html=1;whiteSpace=wrap;" vertex="1" parent="1">
          <mxGeometry x="50" y="120" width="160" height="90" as="geometry" />
        </mxCell>
        <mxCell id="3r31_RjhhZ_8btsHxjqC-2" value="&lt;p style=&quot;margin:0px;margin-top:4px;text-align:center;&quot;&gt;&lt;i&gt;&amp;lt;&amp;lt;Interface&amp;gt;&amp;gt;&lt;/i&gt;&lt;br&gt;&lt;b&gt;IHandler&lt;/b&gt;&lt;/p&gt;&lt;hr size=&quot;1&quot; style=&quot;border-style:solid;&quot;&gt;&lt;p style=&quot;margin:0px;margin-left:4px;&quot;&gt;&lt;br&gt;&lt;/p&gt;&lt;hr size=&quot;1&quot; style=&quot;border-style:solid;&quot;&gt;&lt;p style=&quot;margin:0px;margin-left:4px;&quot;&gt;+ Request()&lt;br&gt;&lt;/p&gt;" style="verticalAlign=top;align=left;overflow=fill;html=1;whiteSpace=wrap;" vertex="1" parent="1">
          <mxGeometry x="410" y="120" width="190" height="100" as="geometry" />
        </mxCell>
        <mxCell id="3r31_RjhhZ_8btsHxjqC-9" style="edgeStyle=orthogonalEdgeStyle;rounded=0;orthogonalLoop=1;jettySize=auto;html=1;entryX=0.25;entryY=1;entryDx=0;entryDy=0;endArrow=block;endFill=0;dashed=1;endSize=12;" edge="1" parent="1" source="3r31_RjhhZ_8btsHxjqC-8" target="3r31_RjhhZ_8btsHxjqC-2">
          <mxGeometry relative="1" as="geometry">
            <Array as="points">
              <mxPoint x="320" y="270" />
              <mxPoint x="458" y="270" />
            </Array>
          </mxGeometry>
        </mxCell>
        <mxCell id="3r31_RjhhZ_8btsHxjqC-8" value="&lt;p style=&quot;margin:0px;margin-top:4px;text-align:center;&quot;&gt;&lt;b&gt;HandlerA&lt;/b&gt;&lt;/p&gt;&lt;hr size=&quot;1&quot; style=&quot;border-style:solid;&quot;&gt;&lt;p style=&quot;margin:0px;margin-left:4px;&quot;&gt;&lt;br&gt;&lt;/p&gt;&lt;hr size=&quot;1&quot; style=&quot;border-style:solid;&quot;&gt;&lt;p style=&quot;margin:0px;margin-left:4px;&quot;&gt;+ Request()&lt;/p&gt;" style="verticalAlign=top;align=left;overflow=fill;html=1;whiteSpace=wrap;" vertex="1" parent="1">
          <mxGeometry x="240" y="300" width="160" height="90" as="geometry" />
        </mxCell>
        <mxCell id="3r31_RjhhZ_8btsHxjqC-11" style="edgeStyle=orthogonalEdgeStyle;rounded=0;orthogonalLoop=1;jettySize=auto;html=1;entryX=0.75;entryY=1;entryDx=0;entryDy=0;dashed=1;endArrow=block;endFill=0;endSize=12;" edge="1" parent="1" source="3r31_RjhhZ_8btsHxjqC-10" target="3r31_RjhhZ_8btsHxjqC-2">
          <mxGeometry relative="1" as="geometry" />
        </mxCell>
        <mxCell id="3r31_RjhhZ_8btsHxjqC-10" value="&lt;p style=&quot;margin:0px;margin-top:4px;text-align:center;&quot;&gt;&lt;b&gt;HandlerB&lt;/b&gt;&lt;/p&gt;&lt;hr size=&quot;1&quot; style=&quot;border-style:solid;&quot;&gt;&lt;p style=&quot;margin:0px;margin-left:4px;&quot;&gt;&lt;br&gt;&lt;/p&gt;&lt;hr size=&quot;1&quot; style=&quot;border-style:solid;&quot;&gt;&lt;p style=&quot;margin:0px;margin-left:4px;&quot;&gt;+ Request()&lt;/p&gt;" style="verticalAlign=top;align=left;overflow=fill;html=1;whiteSpace=wrap;" vertex="1" parent="1">
          <mxGeometry x="540" y="300" width="160" height="90" as="geometry" />
        </mxCell>
        <mxCell id="3r31_RjhhZ_8btsHxjqC-12" style="edgeStyle=orthogonalEdgeStyle;rounded=0;orthogonalLoop=1;jettySize=auto;html=1;entryX=1;entryY=0.25;entryDx=0;entryDy=0;endArrow=open;endFill=0;endSize=12;" edge="1" parent="1" source="3r31_RjhhZ_8btsHxjqC-2" target="3r31_RjhhZ_8btsHxjqC-2">
          <mxGeometry relative="1" as="geometry" />
        </mxCell>
        <mxCell id="3r31_RjhhZ_8btsHxjqC-13" value="#successor" style="text;html=1;align=center;verticalAlign=middle;resizable=0;points=[];autosize=1;strokeColor=none;fillColor=none;" vertex="1" parent="1">
          <mxGeometry x="627" y="108" width="80" height="30" as="geometry" />
        </mxCell>
        <mxCell id="3r31_RjhhZ_8btsHxjqC-14" value="if necessory" style="shape=note2;boundedLbl=1;whiteSpace=wrap;html=1;size=25;verticalAlign=top;align=left;spacingLeft=5;" vertex="1" parent="1">
          <mxGeometry x="670" y="190" width="140" height="60" as="geometry" />
        </mxCell>
        <mxCell id="3r31_RjhhZ_8btsHxjqC-15" value="Call successor" style="resizeWidth=1;part=1;strokeColor=none;fillColor=none;align=left;spacingLeft=5;whiteSpace=wrap;html=1;" vertex="1" parent="3r31_RjhhZ_8btsHxjqC-14">
          <mxGeometry width="140" height="25" relative="1" as="geometry" />
        </mxCell>
        <mxCell id="3r31_RjhhZ_8btsHxjqC-16" style="edgeStyle=orthogonalEdgeStyle;rounded=0;orthogonalLoop=1;jettySize=auto;html=1;exitX=0;exitY=1;exitDx=0;exitDy=0;entryX=1;entryY=0.75;entryDx=0;entryDy=0;endArrow=none;endFill=0;" edge="1" parent="1" source="3r31_RjhhZ_8btsHxjqC-15" target="3r31_RjhhZ_8btsHxjqC-2">
          <mxGeometry relative="1" as="geometry" />
        </mxCell>
      </root>
    </mxGraphModel>
  </diagram>
</mxfile>
